<mxfile host="app.diagrams.net" modified="2023-04-11T06:33:03.206Z" agent="Mozilla/5.0 (X11; Linux x86_64; DingOS XXX-Version) AppleWebKit/537.36 (KHTML, like Gecko) Chrome/111.0.0.0 Dingtao/0.19.1.1 Safari/537.36" etag="dQrKbW_assleA9m_t-ac" version="21.1.5" type="github">
  <diagram name="第 1 页" id="zWDro6s6UhGrpngm-apL">
    <mxGraphModel dx="1941" dy="547" grid="1" gridSize="10" guides="1" tooltips="1" connect="1" arrows="1" fold="1" page="1" pageScale="1" pageWidth="827" pageHeight="1169" math="0" shadow="0">
      <root>
        <mxCell id="0" />
        <mxCell id="1" parent="0" />
        <mxCell id="naUUp4OulHkjQ-NtjOSr-5" value="default" style="swimlane;fontStyle=0;childLayout=stackLayout;horizontal=1;startSize=30;horizontalStack=0;resizeParent=1;resizeParentMax=0;resizeLast=0;collapsible=1;marginBottom=0;whiteSpace=wrap;html=1;fillColor=#dae8fc;strokeColor=#6c8ebf;" parent="1" vertex="1">
          <mxGeometry x="-20" y="120" width="150" height="240" as="geometry" />
        </mxCell>
        <mxCell id="naUUp4OulHkjQ-NtjOSr-6" value="docker" style="text;strokeColor=#666666;fillColor=#f5f5f5;align=left;verticalAlign=middle;spacingLeft=4;spacingRight=4;overflow=hidden;points=[[0,0.5],[1,0.5]];portConstraint=eastwest;rotatable=0;whiteSpace=wrap;html=1;fontColor=#333333;" parent="naUUp4OulHkjQ-NtjOSr-5" vertex="1">
          <mxGeometry y="30" width="150" height="30" as="geometry" />
        </mxCell>
        <mxCell id="naUUp4OulHkjQ-NtjOSr-7" value="feishu" style="text;strokeColor=#666666;fillColor=#f5f5f5;align=left;verticalAlign=middle;spacingLeft=4;spacingRight=4;overflow=hidden;points=[[0,0.5],[1,0.5]];portConstraint=eastwest;rotatable=0;whiteSpace=wrap;html=1;fontColor=#333333;" parent="naUUp4OulHkjQ-NtjOSr-5" vertex="1">
          <mxGeometry y="60" width="150" height="30" as="geometry" />
        </mxCell>
        <mxCell id="naUUp4OulHkjQ-NtjOSr-15" value="fileZilla" style="text;strokeColor=#666666;fillColor=#f5f5f5;align=left;verticalAlign=middle;spacingLeft=4;spacingRight=4;overflow=hidden;points=[[0,0.5],[1,0.5]];portConstraint=eastwest;rotatable=0;whiteSpace=wrap;html=1;fontColor=#333333;" parent="naUUp4OulHkjQ-NtjOSr-5" vertex="1">
          <mxGeometry y="90" width="150" height="30" as="geometry" />
        </mxCell>
        <mxCell id="naUUp4OulHkjQ-NtjOSr-16" value="goland" style="text;strokeColor=#666666;fillColor=#f5f5f5;align=left;verticalAlign=middle;spacingLeft=4;spacingRight=4;overflow=hidden;points=[[0,0.5],[1,0.5]];portConstraint=eastwest;rotatable=0;whiteSpace=wrap;html=1;fontColor=#333333;" parent="naUUp4OulHkjQ-NtjOSr-5" vertex="1">
          <mxGeometry y="120" width="150" height="30" as="geometry" />
        </mxCell>
        <mxCell id="naUUp4OulHkjQ-NtjOSr-8" value="kcalc" style="text;strokeColor=#666666;fillColor=#f5f5f5;align=left;verticalAlign=middle;spacingLeft=4;spacingRight=4;overflow=hidden;points=[[0,0.5],[1,0.5]];portConstraint=eastwest;rotatable=0;whiteSpace=wrap;html=1;fontColor=#333333;" parent="naUUp4OulHkjQ-NtjOSr-5" vertex="1">
          <mxGeometry y="150" width="150" height="30" as="geometry" />
        </mxCell>
        <mxCell id="naUUp4OulHkjQ-NtjOSr-17" value="wps" style="text;strokeColor=#666666;fillColor=#f5f5f5;align=left;verticalAlign=middle;spacingLeft=4;spacingRight=4;overflow=hidden;points=[[0,0.5],[1,0.5]];portConstraint=eastwest;rotatable=0;whiteSpace=wrap;html=1;fontColor=#333333;" parent="naUUp4OulHkjQ-NtjOSr-5" vertex="1">
          <mxGeometry y="180" width="150" height="30" as="geometry" />
        </mxCell>
        <mxCell id="naUUp4OulHkjQ-NtjOSr-18" value="zoom" style="text;strokeColor=#666666;fillColor=#f5f5f5;align=left;verticalAlign=middle;spacingLeft=4;spacingRight=4;overflow=hidden;points=[[0,0.5],[1,0.5]];portConstraint=eastwest;rotatable=0;whiteSpace=wrap;html=1;fontColor=#333333;" parent="naUUp4OulHkjQ-NtjOSr-5" vertex="1">
          <mxGeometry y="210" width="150" height="30" as="geometry" />
        </mxCell>
        <mxCell id="naUUp4OulHkjQ-NtjOSr-19" value="personal" style="swimlane;fontStyle=0;childLayout=stackLayout;horizontal=1;startSize=30;horizontalStack=0;resizeParent=1;resizeParentMax=0;resizeLast=0;collapsible=1;marginBottom=0;whiteSpace=wrap;html=1;fillColor=#dae8fc;strokeColor=#6c8ebf;" parent="1" vertex="1">
          <mxGeometry x="170" y="120" width="150" height="240" as="geometry" />
        </mxCell>
        <mxCell id="naUUp4OulHkjQ-NtjOSr-20" value="bilg" style="text;strokeColor=#d6b656;fillColor=#fff2cc;align=left;verticalAlign=middle;spacingLeft=4;spacingRight=4;overflow=hidden;points=[[0,0.5],[1,0.5]];portConstraint=eastwest;rotatable=0;whiteSpace=wrap;html=1;" parent="naUUp4OulHkjQ-NtjOSr-19" vertex="1">
          <mxGeometry y="30" width="150" height="30" as="geometry" />
        </mxCell>
        <mxCell id="naUUp4OulHkjQ-NtjOSr-21" value="fengjh" style="text;strokeColor=#d6b656;fillColor=#fff2cc;align=left;verticalAlign=middle;spacingLeft=4;spacingRight=4;overflow=hidden;points=[[0,0.5],[1,0.5]];portConstraint=eastwest;rotatable=0;whiteSpace=wrap;html=1;" parent="naUUp4OulHkjQ-NtjOSr-19" vertex="1">
          <mxGeometry y="60" width="150" height="30" as="geometry" />
        </mxCell>
        <mxCell id="naUUp4OulHkjQ-NtjOSr-22" value="pengh" style="text;strokeColor=#d6b656;fillColor=#fff2cc;align=left;verticalAlign=middle;spacingLeft=4;spacingRight=4;overflow=hidden;points=[[0,0.5],[1,0.5]];portConstraint=eastwest;rotatable=0;whiteSpace=wrap;html=1;" parent="naUUp4OulHkjQ-NtjOSr-19" vertex="1">
          <mxGeometry y="90" width="150" height="30" as="geometry" />
        </mxCell>
        <mxCell id="naUUp4OulHkjQ-NtjOSr-23" value="sirigl" style="text;strokeColor=#d6b656;fillColor=#fff2cc;align=left;verticalAlign=middle;spacingLeft=4;spacingRight=4;overflow=hidden;points=[[0,0.5],[1,0.5]];portConstraint=eastwest;rotatable=0;whiteSpace=wrap;html=1;" parent="naUUp4OulHkjQ-NtjOSr-19" vertex="1">
          <mxGeometry y="120" width="150" height="30" as="geometry" />
        </mxCell>
        <mxCell id="naUUp4OulHkjQ-NtjOSr-24" value="plasma" style="text;strokeColor=#82b366;fillColor=#d5e8d4;align=left;verticalAlign=middle;spacingLeft=4;spacingRight=4;overflow=hidden;points=[[0,0.5],[1,0.5]];portConstraint=eastwest;rotatable=0;whiteSpace=wrap;html=1;" parent="naUUp4OulHkjQ-NtjOSr-19" vertex="1">
          <mxGeometry y="150" width="150" height="30" as="geometry" />
        </mxCell>
        <mxCell id="naUUp4OulHkjQ-NtjOSr-25" value="agent" style="text;strokeColor=#82b366;fillColor=#d5e8d4;align=left;verticalAlign=middle;spacingLeft=4;spacingRight=4;overflow=hidden;points=[[0,0.5],[1,0.5]];portConstraint=eastwest;rotatable=0;whiteSpace=wrap;html=1;" parent="naUUp4OulHkjQ-NtjOSr-19" vertex="1">
          <mxGeometry y="180" width="150" height="30" as="geometry" />
        </mxCell>
        <mxCell id="naUUp4OulHkjQ-NtjOSr-26" value="dingtao" style="text;strokeColor=#82b366;fillColor=#d5e8d4;align=left;verticalAlign=middle;spacingLeft=4;spacingRight=4;overflow=hidden;points=[[0,0.5],[1,0.5]];portConstraint=eastwest;rotatable=0;whiteSpace=wrap;html=1;" parent="naUUp4OulHkjQ-NtjOSr-19" vertex="1">
          <mxGeometry y="210" width="150" height="30" as="geometry" />
        </mxCell>
        <mxCell id="naUUp4OulHkjQ-NtjOSr-27" value="system" style="swimlane;fontStyle=0;childLayout=stackLayout;horizontal=1;startSize=30;horizontalStack=0;resizeParent=1;resizeParentMax=0;resizeLast=0;collapsible=1;marginBottom=0;whiteSpace=wrap;html=1;fillColor=#dae8fc;strokeColor=#6c8ebf;" parent="1" vertex="1">
          <mxGeometry x="361" y="120" width="150" height="150" as="geometry" />
        </mxCell>
        <mxCell id="naUUp4OulHkjQ-NtjOSr-28" value="dingtao" style="text;strokeColor=#9673a6;fillColor=#e1d5e7;align=left;verticalAlign=middle;spacingLeft=4;spacingRight=4;overflow=hidden;points=[[0,0.5],[1,0.5]];portConstraint=eastwest;rotatable=0;whiteSpace=wrap;html=1;" parent="naUUp4OulHkjQ-NtjOSr-27" vertex="1">
          <mxGeometry y="30" width="150" height="30" as="geometry" />
        </mxCell>
        <mxCell id="naUUp4OulHkjQ-NtjOSr-29" value="agent" style="text;strokeColor=#9673a6;fillColor=#e1d5e7;align=left;verticalAlign=middle;spacingLeft=4;spacingRight=4;overflow=hidden;points=[[0,0.5],[1,0.5]];portConstraint=eastwest;rotatable=0;whiteSpace=wrap;html=1;" parent="naUUp4OulHkjQ-NtjOSr-27" vertex="1">
          <mxGeometry y="60" width="150" height="30" as="geometry" />
        </mxCell>
        <mxCell id="naUUp4OulHkjQ-NtjOSr-30" value="plasma" style="text;strokeColor=#9673a6;fillColor=#e1d5e7;align=left;verticalAlign=middle;spacingLeft=4;spacingRight=4;overflow=hidden;points=[[0,0.5],[1,0.5]];portConstraint=eastwest;rotatable=0;whiteSpace=wrap;html=1;" parent="naUUp4OulHkjQ-NtjOSr-27" vertex="1">
          <mxGeometry y="90" width="150" height="30" as="geometry" />
        </mxCell>
        <mxCell id="naUUp4OulHkjQ-NtjOSr-37" value="......" style="text;strokeColor=#9673a6;fillColor=#e1d5e7;align=left;verticalAlign=middle;spacingLeft=4;spacingRight=4;overflow=hidden;points=[[0,0.5],[1,0.5]];portConstraint=eastwest;rotatable=0;whiteSpace=wrap;html=1;" parent="naUUp4OulHkjQ-NtjOSr-27" vertex="1">
          <mxGeometry y="120" width="150" height="30" as="geometry" />
        </mxCell>
      </root>
    </mxGraphModel>
  </diagram>
</mxfile>
